# xmcd CD database file
#
# Track frame offsets:
#	150
#	20767
#	42622
#	63203
#
# Disc length: 1131 seconds
#
# Revision: 0
# Processed by: cddbd v1.5.1PL0 Copyright (c) Steve Scherf et al.
# Submitted via: CDex 1.40Release
#
DISCID=32046904
DTITLE=松田聖子 - しあわせな気持ち
DYEAR=2005
DGENRE=JPop
TTITLE0=しあわせな気持ち
TTITLE1=The time went by
TTITLE2=しあわせな気持ち (Backing Track)
TTITLE3=The time went by (Backing Track)
EXTD=YEAR: 2005
EXTT0=
EXTT1=
EXTT2=
EXTT3=
PLAYORDER=
